# xmcd CD database file generated by OrangeCD 6.2
#
# Track frame offsets:
#	182
#	14177
#	28542
#	42677
#	56750
#	70632
#	83732
#	97137
#	110652
#	125315
#	137665
#	150782
#	165360
#	179577
#	193740
#	206480
#	219840
#	231942
#
# Disc length: 3271 seconds
#
# Revision: 3
# Processed by: cddbd v1.5.2PL0 Copyright (c) Steve Scherf et al.
# Submitted via: OrangeCD 6.2
#
DISCID=fa0cc512
DTITLE=Charlie Patton - Pony Blues
DYEAR=1995
DGENRE=Blues
TTITLE0=Tom Rushen Blues
TTITLE1=A Spoonful Blues
TTITLE2=Shake It And Break It
TTITLE3=Mississippi Bo Weavil Blues
TTITLE4=Screamin' And Hollerin' The Blues
TTITLE5=Down The Dirt Road Blues
TTITLE6=Pony Blues
TTITLE7=Going To Move To Alabama
TTITLE8=Hammer Blues
TTITLE9=Ratlesnake Blues
TTITLE10=Running Wild Blues
TTITLE11=Moon Going Down
TTITLE12=Bird Nest Bound
TTITLE13=High Sheriff Blues
TTITLE14=Stone Pony Blues
TTITLE15=34 Blues
TTITLE16=Revenue Man Blues
TTITLE17=Poor Me
EXTD=
EXTT0=
EXTT1=
EXTT2=
EXTT3=
EXTT4=
EXTT5=
EXTT6=
EXTT7=
EXTT8=
EXTT9=
EXTT10=
EXTT11=
EXTT12=
EXTT13=
EXTT14=
EXTT15=
EXTT16=
EXTT17=
PLAYORDER=
